<?xml version="1.0" encoding="UTF-8"?>
<svg id="Layer_2" data-name="Layer 2" xmlns="http://www.w3.org/2000/svg" viewBox="0 0 57.14 56.96">
  <defs>
    <style>
      .cls-1 {
        fill: #fff;
        stroke-width: 0px;
      }
    </style>
  </defs>
  <g id="Layer_1-2" data-name="Layer 1">
    <path class="cls-1" d="M27.78,56.96c-8.06,0-15.69-3.42-20.93-9.37C-3.4,35.95-1.99,17.9,9.99,7.36,15.39,2.62,22.27,0,29.36,0c8.06,0,15.69,3.42,20.93,9.37,10.24,11.65,8.83,29.69-3.14,40.23-5.4,4.75-12.28,7.36-19.37,7.36ZM29.36,4c-6.12,0-12.06,2.26-16.73,6.37C2.31,19.45,1.06,34.96,9.85,44.95c4.48,5.09,11.02,8.01,17.93,8.01,6.12,0,12.06-2.26,16.73-6.37,10.32-9.08,11.57-24.59,2.78-34.58-4.48-5.09-11.01-8.01-17.93-8.01Z"/>
  </g>
</svg>