<?xml version="1.0" encoding="UTF-8"?>
<svg id="Layer_2" data-name="Layer 2" xmlns="http://www.w3.org/2000/svg" viewBox="0 0 1287.25 1287.25">
  <defs>
    <style>
      .cls-1 {
        fill: #fff;
        stroke-width: 0px;
      }
    </style>
  </defs>
  <g id="Layer_1-2" data-name="Layer 1">
    <g>
      <path class="cls-1" d="M1287.25,1287.25H0V0h1287.25v1287.25ZM4,1283.25h1279.25V4H4v1279.25Z"/>
      <path class="cls-1" d="M1248.75,1248.75H38.5V38.5h1210.25v1210.25ZM42.5,1244.75h1202.25V42.5H42.5v1202.25Z"/>
      <path class="cls-1" d="M1212.56,1212.57H74.69V74.69h1137.88v1137.88ZM78.69,1208.57h1129.88V78.69H78.69v1129.88Z"/>
      <path class="cls-1" d="M1178.55,1178.55H108.7V108.7h1069.84v1069.85ZM112.7,1174.55h1061.84V112.7H112.7v1061.85Z"/>
      <path class="cls-1" d="M1146.57,1146.57H140.68V140.68h1005.89v1005.9ZM144.68,1142.57h997.89V144.68H144.68v997.9Z"/>
      <path class="cls-1" d="M1116.51,1116.52H170.73V170.73h945.78v945.78ZM174.73,1112.52h937.78V174.73H174.73v937.78Z"/>
      <path class="cls-1" d="M1088.26,1088.26H198.99V198.99h889.27v889.28ZM202.99,1084.26h881.27V202.99H202.99v881.28Z"/>
      <path class="cls-1" d="M1061.7,1061.71H225.54V225.54h836.16v836.16ZM229.54,1057.71h828.16V229.54H229.54v828.16Z"/>
      <path class="cls-1" d="M1036.74,1036.74H250.51V250.51h786.23v786.23ZM254.51,1032.74h778.23V254.51H254.51v778.23Z"/>
      <path class="cls-1" d="M1013.27,1013.27H273.98V273.98h739.29v739.3ZM277.98,1009.27h731.29V277.98H277.98v731.3Z"/>
      <path class="cls-1" d="M991.21,991.21H296.04V296.04h695.17v695.18ZM300.04,987.21h687.17V300.04H300.04v687.18Z"/>
      <path class="cls-1" d="M970.47,970.48H316.77V316.77h653.7v653.71ZM320.77,966.48h645.7V320.77H320.77v645.71Z"/>
      <path class="cls-1" d="M950.98,950.99H336.26V336.26h614.72v614.73ZM340.26,946.99h606.72V340.26H340.26v606.73Z"/>
      <path class="cls-1" d="M932.66,932.67H354.58V354.58h578.08v578.08ZM358.58,928.67h570.08V358.58H358.58v570.08Z"/>
      <path class="cls-1" d="M915.44,915.44H371.81V371.8h543.63v543.64ZM375.81,911.44h535.63V375.8H375.81v535.64Z"/>
      <path class="cls-1" d="M899.25,899.25h-511.26v-511.26h511.26v511.26ZM391.99,895.25h503.26v-503.26h-503.26v503.26Z"/>
      <path class="cls-1" d="M884.03,884.04h-480.82v-480.82h480.82v480.82ZM407.21,880.04h472.82v-472.82h-472.82v472.82Z"/>
      <path class="cls-1" d="M869.73,869.73h-452.21v-452.21h452.21v452.21ZM421.52,865.73h444.21v-444.21h-444.21v444.21Z"/>
      <path class="cls-1" d="M856.28,856.29h-425.32v-425.32h425.32v425.32ZM434.96,852.29h417.32v-417.32h-417.32v417.32Z"/>
      <path class="cls-1" d="M843.64,843.64h-400.04v-400.04h400.04v400.04ZM447.6,839.64h392.04v-392.04h-392.04v392.04Z"/>
      <path class="cls-1" d="M831.76,831.76h-376.28v-376.28h376.28v376.28ZM459.48,827.76h368.28v-368.28h-368.28v368.28Z"/>
      <path class="cls-1" d="M820.59,820.6h-353.94v-353.94h353.94v353.94ZM470.65,816.6h345.94v-345.94h-345.94v345.94Z"/>
      <path class="cls-1" d="M810.09,810.1h-332.95v-332.95h332.95v332.95ZM481.15,806.1h324.95v-324.95h-324.95v324.95Z"/>
    </g>
  </g>
</svg>