<?xml version="1.0" encoding="UTF-8"?>
<svg id="Layer_2" data-name="Layer 2" xmlns="http://www.w3.org/2000/svg" viewBox="0 0 49.8 49.81">
  <defs>
    <style>
      .cls-1 {
        fill: #fff;
        stroke-width: 0px;
      }
    </style>
  </defs>
  <g id="Layer_1-2" data-name="Layer 1">
    <path class="cls-1" d="M24.92,49.81c-7.16,0-13.98-3.08-18.71-8.45C1.81,36.36-.37,29.95.05,23.32c.42-6.64,3.41-12.72,8.4-17.11C13.01,2.2,18.84,0,24.9,0c7.16,0,13.98,3.08,18.71,8.46,9.07,10.31,8.06,26.08-2.25,35.15-4.55,4-10.39,6.21-16.44,6.21ZM24.9,4c-5.08,0-9.98,1.85-13.8,5.21-4.19,3.69-6.7,8.79-7.05,14.36-.36,5.57,1.48,10.95,5.17,15.14,3.97,4.51,9.69,7.1,15.7,7.1,5.08,0,9.98-1.85,13.8-5.21,8.65-7.62,9.5-20.85,1.89-29.5-3.97-4.51-9.69-7.1-15.71-7.1Z"/>
  </g>
</svg>